<?xml version="1.0" standalone="no"?>
<!DOCTYPE svg PUBLIC "-//W3C//DTD SVG 1.1//EN" "http://www.w3.org/Graphics/SVG/1.1/DTD/svg11.dtd">
<svg version="1.1" xmlns="http://www.w3.org/2000/svg" viewBox="0 0 310.6541046734492 274.0404200258366" width="931.9623140203475" height="822.1212600775099"><!-- svg-source:excalidraw --><metadata></metadata><defs><style class="style-fonts">
      </style></defs><g stroke-linecap="round"><g transform="translate(161.03030227137094 264.22974146661363) rotate(351.87175381768964 1.0471862387325928 -123.27777177831496)" fill-rule="evenodd"><path d="M-0.93 -2.03 C6.68 -6.93, 26.65 -16.68, 43.42 -28.31 C60.2 -39.94, 84.52 -56.53, 99.71 -71.82 C114.91 -87.1, 126.71 -104.44, 134.61 -120.05 C142.5 -135.65, 147.55 -149.65, 147.09 -165.46 C146.64 -181.27, 139.73 -202.61, 131.86 -214.89 C124 -227.17, 112.28 -233.48, 99.9 -239.14 C87.53 -244.8, 69.55 -248.91, 57.62 -248.83 C45.68 -248.75, 35.72 -241.79, 28.32 -238.65 C20.91 -235.52, 18.36 -233.88, 13.19 -230.04 C8.02 -226.2, 2.2 -215.48, -2.71 -215.61 C-7.62 -215.74, -10.24 -226.21, -16.28 -230.81 C-22.31 -235.41, -31.09 -240.58, -38.91 -243.19 C-46.74 -245.8, -53.23 -247.31, -63.24 -246.46 C-73.25 -245.61, -87.43 -243.23, -98.96 -238.1 C-110.48 -232.96, -124.66 -225.36, -132.39 -215.65 C-140.13 -205.94, -143.76 -193.08, -145.36 -179.82 C-146.95 -166.56, -147.66 -152.08, -141.98 -136.1 C-136.29 -120.11, -124.03 -100.02, -111.26 -83.92 C-98.5 -67.82, -83.71 -53.52, -65.38 -39.51 C-47.05 -25.5, -12.45 -6.07, -1.29 0.16" stroke="none" stroke-width="0" fill="#ffc9c9" fill-rule="evenodd"></path><path d="M-0.1 -0.05 C7.5 -4.72, 29.79 -16.48, 46.19 -28.07 C62.59 -39.66, 83.63 -54.5, 98.3 -69.61 C112.97 -84.72, 126.34 -103.14, 134.22 -118.74 C142.11 -134.34, 145.92 -147.39, 145.63 -163.21 C145.33 -179.03, 139.97 -200.99, 132.43 -213.65 C124.89 -226.31, 113.05 -233.82, 100.38 -239.17 C87.71 -244.52, 68.22 -245.94, 56.39 -245.76 C44.55 -245.58, 36.99 -240.98, 29.37 -238.08 C21.75 -235.19, 15.84 -231.72, 10.66 -228.39 C5.49 -225.06, 2.76 -217.36, -1.68 -218.11 C-6.12 -218.86, -9.82 -228.54, -15.99 -232.91 C-22.16 -237.28, -30.68 -241.96, -38.71 -244.34 C-46.73 -246.72, -54.13 -247.96, -64.14 -247.21 C-74.14 -246.46, -87.53 -245.05, -98.76 -239.84 C-109.98 -234.62, -124.01 -226.23, -131.49 -215.91 C-138.96 -205.59, -141.57 -191.17, -143.59 -177.9 C-145.62 -164.64, -148.59 -151.82, -143.62 -136.33 C-138.65 -120.84, -126.69 -100.89, -113.77 -84.97 C-100.85 -69.06, -85.03 -55.15, -66.09 -40.84 C-47.14 -26.53, -11.32 -5.92, -0.11 0.89 M-1.62 -1.13 C5.88 -5.58, 29.24 -14.77, 45.85 -26.52 C62.46 -38.28, 83.32 -56.44, 98.01 -71.64 C112.71 -86.83, 126.32 -102, 134.02 -117.71 C141.71 -133.41, 144.74 -150.24, 144.19 -165.87 C143.64 -181.5, 137.88 -199.59, 130.71 -211.5 C123.55 -223.41, 113.7 -231.65, 101.22 -237.35 C88.74 -243.05, 68.01 -245.43, 55.83 -245.68 C43.65 -245.93, 35.57 -241.6, 28.14 -238.84 C20.71 -236.08, 16.28 -232.74, 11.26 -229.13 C6.24 -225.53, 2.79 -216.52, -1.97 -217.21 C-6.72 -217.9, -11.18 -229.14, -17.28 -233.27 C-23.39 -237.4, -30.69 -239.57, -38.59 -241.98 C-46.5 -244.39, -54.75 -248.05, -64.7 -247.74 C-74.66 -247.44, -87.31 -245.61, -98.32 -240.14 C-109.33 -234.68, -122.99 -225.5, -130.76 -214.96 C-138.53 -204.41, -143.11 -189.96, -144.92 -176.89 C-146.72 -163.81, -147.11 -151.92, -141.6 -136.53 C-136.09 -121.14, -124.42 -100.78, -111.85 -84.54 C-99.29 -68.3, -84.64 -53.23, -66.21 -39.11 C-47.78 -24.99, -12.02 -6.12, -1.25 0.18" stroke="#1e1e1e" stroke-width="1" fill="none"></path></g></g><mask></mask></svg>